<svg xmlns="http://www.w3.org/2000/svg" viewBox="40 10 560 210">
  <defs>
    <linearGradient id="bm" x1="0%" y1="0%" x2="0%" y2="100%">
      <stop offset="0%" style="stop-color:#8B9E7C"/>
      <stop offset="40%" style="stop-color:#A3B18A"/>
      <stop offset="70%" style="stop-color:#C2C9A7"/>
      <stop offset="100%" style="stop-color:#E8DABB"/>
    </linearGradient>
    <linearGradient id="bt" x1="0%" y1="0%" x2="100%" y2="0%">
      <stop offset="0%" style="stop-color:#6B7F5E"/>
      <stop offset="50%" style="stop-color:#7A8E6C"/>
      <stop offset="100%" style="stop-color:#8B9E7C"/>
    </linearGradient>
    <linearGradient id="tf" x1="100%" y1="0%" x2="0%" y2="0%">
      <stop offset="0%" style="stop-color:#8B9E7C;stop-opacity:0.7"/>
      <stop offset="100%" style="stop-color:#9E8B6E;stop-opacity:0.5"/>
    </linearGradient>
  </defs>
  <g transform="translate(60, 12)">
    <!-- Tail fins -->
    <path d="M 72 108 Q 48 85 22 52 Q 38 72 48 88 Q 30 58 12 28 Q 35 65 52 95" fill="url(#tf)" stroke="#5C6B4E" stroke-width="1.8" stroke-linecap="round" opacity="0.8"/>
    <path d="M 72 128 Q 48 150 22 182 Q 38 162 48 148 Q 30 175 12 205 Q 35 170 52 142" fill="url(#tf)" stroke="#5C6B4E" stroke-width="1.8" stroke-linecap="round" opacity="0.8"/>
    <!-- Body -->
    <path d="M 70 115 C 95 108,130 82,180 68 C 220 58,270 48,320 44 C 370 40,420 42,460 50 C 490 56,510 65,530 80 C 542 90,548 100,550 112 L 548 118 C 546 130,540 140,530 148 C 515 162,495 170,470 176 C 430 186,380 190,330 190 C 270 190,210 185,165 175 C 130 167,100 155,80 142 C 72 136,70 125,70 120 Z" fill="url(#bm)" stroke="#5C6B4E" stroke-width="2" stroke-linejoin="round"/>
    <!-- Top coloring -->
    <path d="M 70 115 C 95 108,130 82,180 68 C 220 58,270 48,320 44 C 370 40,420 42,460 50 C 490 56,510 65,530 80 C 542 90,548 100,550 112 L 548 114 C 500 100,440 82,370 76 C 300 70,220 78,160 92 C 120 102,90 112,70 118 Z" fill="url(#bt)" opacity="0.6"/>
    <!-- Red spots -->
    <circle cx="200" cy="115" r="3.5" fill="#C4704B" opacity="0.7"/>
    <circle cx="250" cy="105" r="3.5" fill="#C4704B" opacity="0.7"/>
    <circle cx="300" cy="110" r="3.5" fill="#C4704B" opacity="0.7"/>
    <circle cx="350" cy="100" r="3.5" fill="#C4704B" opacity="0.68"/>
    <circle cx="400" cy="105" r="3" fill="#C4704B" opacity="0.65"/>
    <circle cx="280" cy="135" r="3.5" fill="#C4704B" opacity="0.68"/>
    <circle cx="340" cy="130" r="3" fill="#C4704B" opacity="0.65"/>
    <!-- Gill -->
    <path d="M 490 82 Q 495 105 492 135" fill="none" stroke="#5C6B4E" stroke-width="1.8" opacity="0.45" stroke-linecap="round"/>
    <!-- Eye -->
    <circle cx="520" cy="100" r="7.5" fill="#2D3424"/>
    <circle cx="520" cy="100" r="5" fill="#3D4A30"/>
    <circle cx="522" cy="98" r="2" fill="#E8DABB" opacity="0.75"/>
    <!-- Mouth -->
    <path d="M 548 118 Q 555 114 558 108" fill="none" stroke="#5C6B4E" stroke-width="2" stroke-linecap="round"/>
  </g>
</svg>
